/* XPM */
static char *dummy[]={
"16 16 2 1",
". c #ff0000",
"# c #ffffff",
"................",
"................",
"................",
"................",
"................",
"....###...###...",
"....###...###...",
".......###......",
".......###......",
".......###......",
"....###...###...",
"....###...###...",
"................",
"................",
"................",
"................"};
