/* XPM */
static char *dummy[]={
"24 26 3 1",
"# c #000000",
"a c #6699cc",
". c #ffffff",
"........................",
"........................",
"........................",
"........................",
"........................",
"....###############.....",
"....#aaaaaaaaaaaaa#.....",
"....#aaaaaaaaaaaaa#.....",
"....#aaaaaaaaaaaaa#.....",
"....#aaaaaaaaaaaaa#.....",
"....#aaaaaaaaaaaaa#.....",
"....#aaaaaaaaaaaaa#.....",
"....#aaaaaaaaaaaaa#.....",
"....#aaaaaaaaaaaaa#.....",
"....#aaaaaaaaaaaaa#.....",
"....#aaaaaaaaaaaaa#.....",
"....#aaaaaaaaaaaaa#.....",
"....#aaaaaaaaaaaaa#.....",
"....#aaaaaaaaaaaaa#.....",
"....#aaaaaaaaaaaaa#.....",
"....###############.....",
"........................",
"........................",
"........................",
"........................",
"........................"};
